<svg xmlns="http://www.w3.org/2000/svg" viewBox="0 0 320 40.74262528537366" preserveAspectRatio="xMidYMid meet" class="css-1uxicuq" id="ccbgdbdc"><defs id="SvgjsDefs1224"/><g id="SvgjsG1225" featurekey="symbolFeature-0" transform="matrix(1.1610894710005786,0,0,1.1610894710005786,-8.054477979233761,-37.6831609073421)" fill="#6639a6"><polygon xmlns="http://www.w3.org/2000/svg" points="76.972,48.505 76.971,38.03 78.048,38.03 78.048,35.399 70.469,35.4 70.47,38.031 71.545,38.031 71.546,45.256   50.169,32.455 6.937,58.138 8.483,60.74 17.164,55.582 17.164,67.545 20.191,67.545 20.191,53.906 19.987,53.906 50.163,35.979   81.523,54.758 81.523,67.545 84.55,67.545 84.55,56.57 91.508,60.737 93.063,58.14 "/></g><g id="SvgjsG1226" featurekey="nameFeature-0" transform="matrix(1.1015642360066413,0,0,1.1015642360066413,117.26812067369286,-6.971578782113969)" fill="#521262"><path d="M2.48 38.76 l0 -27.56 c0 -0.68 0.56 -1.24 1.24 -1.24 l13.96 0 c3.44 0 6.28 2.84 6.28 6.28 l0 17.48 c0 3.48 -2.84 6.28 -6.28 6.28 l-13.96 0 c-0.68 0 -1.24 -0.56 -1.24 -1.24 z M5.04 38.28 l12.64 0 c2.28 0 4.2 -1.88 4.2 -4.2 l0 -18.16 c0 -2.32 -1.92 -4.2 -4.2 -4.2 l-12.64 0 c-0.28 0 -0.48 0.2 -0.48 0.44 l0 25.64 c0 0.28 0.2 0.48 0.48 0.48 z M33.68 40 c-2.76 0 -4.96 -1.8 -4.96 -4.84 l0 -10.36 c0 -3 2.12 -4.8 4.84 -4.8 l6.32 0 c2.72 0 4.84 1.8 4.84 4.8 l0 5.44 c0 0.28 -0.2 0.48 -0.44 0.48 l-12.84 0 c-0.36 0 -0.68 -0.2 -0.88 -0.48 l-0.04 0 l0 4.88 c0 1.76 1.4 3.16 3.16 3.16 l10.28 0 c0.24 0 0.44 0.2 0.44 0.44 l0 1.28 l-10.72 0 z M39.88 21.64 l-6.32 0 c-1.72 0 -3.04 1.44 -3.04 3.2 l0 3.76 c0 0.24 0.16 0.4 0.44 0.44 l11.96 0 l0 -4.2 c0 -1.76 -1.32 -3.2 -3.04 -3.2 z M49.28 35 l0 -9.96 c0 -2.76 2.2 -5 4.96 -5 l8.2 0 l0 1.2 c0 0.24 -0.16 0.44 -0.4 0.44 l-7.8 0 c-1.76 0 -3.16 1.44 -3.16 3.2 l0 10.28 c0 1.76 1.4 3.16 3.16 3.16 l7.8 0 c0.24 0 0.4 0.2 0.4 0.44 l0 1.24 l-8.2 0 c-2.76 0 -4.96 -2.24 -4.96 -5 z M77.88 40.28 l-6.04 0 c-2.76 0 -4.96 -2.24 -4.96 -5 l0 -10.52 c0 -2.76 2.2 -5.04 4.96 -5.04 l6.04 0 c2.72 0 4.92 2.28 4.92 5.04 l0 10.52 c0 2.76 -2.2 5 -4.92 5 z M77.88 21.4 l-6.04 0 c-1.76 0 -3.16 1.44 -3.16 3.2 l0 10.84 c0 1.76 1.4 3.16 3.16 3.16 l6.04 0 c1.72 0 3.12 -1.4 3.12 -3.16 l0 -10.84 c0 -1.76 -1.4 -3.2 -3.12 -3.2 z M87.64000000000001 20 l1.8 0 l0 1.32 s0.8 -1.32 3.52 -1.32 l4.56 0 l0 1.24 c0 0.24 -0.2 0.4 -0.44 0.4 l-4.92 0 c-2.8 0 -2.72 2.88 -2.72 2.88 l0 15.48 l-1.8 0 l0 -20 z M123.96000000000001 39.6 l-10.44 -29.6 l1.76 0 c0.24 0 0.52 0.16 0.6 0.4 l9.76 27.88 l9.76 -27.88 c0.08 -0.24 0.36 -0.4 0.6 -0.4 l1.76 0 l-10.44 29.6 c-0.08 0.24 -0.32 0.4 -0.56 0.4 l-2.24 0 c-0.24 0 -0.48 -0.16 -0.56 -0.4 z M140.52 39.56 l0 -19.56 l1.36 0 c0.24 0 0.44 0.16 0.44 0.4 l0 19.6 l-1.36 0 c-0.24 0 -0.44 -0.2 -0.44 -0.44 z M140.52 13 l0 -1.88 l1.4 0 c0.24 0 0.4 0.2 0.4 0.4 l0 1.88 l-1.4 0 c-0.24 0 -0.4 -0.16 -0.4 -0.4 z M158.60000000000002 20 c2.76 0 4.96 1.88 4.96 4.88 l0 10.24 c0 3 -2.2 4.88 -4.96 4.88 l-10.28 0 c-0.24 0 -0.44 -0.2 -0.44 -0.44 l0 -29.56 l1.36 0 c0.24 0 0.44 0.2 0.44 0.44 l0 10.32 c0.04 -0.44 0.56 -0.76 1.12 -0.76 l7.8 0 z M161.84000000000003 35.16 l0 -10.32 c0 -1.76 -1.48 -3.2 -3.24 -3.2 l-8.24 0 c-0.36 0.04 -0.64 0.32 -0.68 0.72 l0 3.72 l0 12.24 l8.92 0 c1.76 0 3.24 -1.4 3.24 -3.16 z M173.00000000000003 40 c-2.76 0 -4.96 -1.8 -4.96 -4.84 l0 -10.36 c0 -3 2.12 -4.8 4.84 -4.8 l6.32 0 c2.72 0 4.84 1.8 4.84 4.8 l0 5.44 c0 0.28 -0.2 0.48 -0.44 0.48 l-12.84 0 c-0.36 0 -0.68 -0.2 -0.88 -0.48 l-0.04 0 l0 4.88 c0 1.76 1.4 3.16 3.16 3.16 l10.28 0 c0.24 0 0.44 0.2 0.44 0.44 l0 1.28 l-10.72 0 z M179.20000000000002 21.64 l-6.32 0 c-1.72 0 -3.04 1.44 -3.04 3.2 l0 3.76 c0 0.24 0.16 0.4 0.44 0.44 l11.96 0 l0 -4.2 c0 -1.76 -1.32 -3.2 -3.04 -3.2 z"/></g></svg>