<svg width="200" height="30" fill="none" xmlns="http://www.w3.org/2000/svg">
<g filter="url(#filter0_d)">
<path d="M6.26 17.54 l-1.32 0 c-0.36 0 -0.66 -0.3 -0.66 -0.68 c0 -0.36 0.3 -0.66 0.66 -0.66 l1.32 0 c1.98 0 3.24 -1.46 3.24 -3.36 c0 -1.88 -1.26 -3.34 -3.24 -3.34 l-0.66 0 l0 4.68 c0 0.38 -0.28 0.68 -0.66 0.68 c-0.36 0 -0.66 -0.3 -0.66 -0.68 l0 -5.34 c0 -0.38 0.3 -0.68 0.66 -0.68 l1.32 0 c2.74 0 4.56 2.06 4.56 4.68 c0 2.64 -1.82 4.7 -4.56 4.7 l0 0 z M2.94 19.54 c0 0.36 -0.3 0.66 -0.68 0.66 c-0.36 0 -0.66 -0.3 -0.66 -0.66 l0 -13.38 c0 -0.36 0.3 -0.66 0.66 -0.66 l4 0 c4.34 0 7.36 3.12 7.36 7.34 c0 4.24 -3.02 7.36 -7.36 7.36 l-1.34 0 c-0.36 0 -0.66 -0.3 -0.66 -0.66 c0 -0.38 0.3 -0.68 0.66 -0.68 l1.34 0 c3.58 0 6.02 -2.52 6.02 -6.02 c0 -3.48 -2.44 -6 -6.02 -6 l-3.32 0 l0 12.7 l0 0 z M23.880000000000003 8.18 c0.38 0 0.68 0.28 0.68 0.66 c0 0.36 -0.3 0.66 -0.68 0.66 l-3.58 0 l0 1.34 l2.34 0 c0.38 0 0.68 0.3 0.68 0.68 c0 0.36 -0.3 0.66 -0.68 0.66 l-3 0 c-0.38 0 -0.68 -0.3 -0.68 -0.66 l0 -2.68 c0 -0.38 0.3 -0.66 0.68 -0.66 l4.24 0 l0 0 z M22.64 13.52 c0.38 0 0.68 0.3 0.68 0.66 c0 0.38 -0.3 0.68 -0.68 0.68 l-2.34 0 l0 1.32 l3.58 0 c0.38 0 0.68 0.3 0.68 0.68 c0 0.36 -0.3 0.66 -0.68 0.66 l-4.24 0 c-0.38 0 -0.68 -0.3 -0.68 -0.66 l0 -2.68 c0 -0.36 0.3 -0.66 0.68 -0.66 l3 0 l0 0 z M23.880000000000003 18.86 c0.38 0 0.68 0.3 0.68 0.68 c0 0.36 -0.3 0.66 -0.68 0.66 l-6.92 0 c-0.36 0 -0.66 -0.3 -0.66 -0.66 l0 -13.38 c0 -0.36 0.3 -0.66 0.66 -0.66 l6.92 0 c0.38 0 0.68 0.3 0.68 0.66 c0 0.38 -0.3 0.68 -0.68 0.68 l-6.24 0 l0 12.02 l6.24 0 l0 0 z M37.08 5.800000000000001 c0.8 0.34 0.3 1.56 -0.52 1.24 c-0.8 -0.34 -1.64 -0.5 -2.5 -0.5 c-3.6 0 -6.16 2.72 -6.16 6.24 c0.02 3.14 2.12 6.2 6.22 6.2 c0.86 0 1.66 -0.18 2.44 -0.48 c0.82 -0.34 1.32 0.9 0.52 1.22 c-0.94 0.38 -1.94 0.58 -2.96 0.58 c-4.98 0 -7.5 -3.74 -7.52 -7.48 c-0.02 -3.8 2.48 -7.6 7.52 -7.6 c1.02 0 2.02 0.2 2.96 0.58 l0 0 z M36.16 15.719999999999999 c0.76 -0.4 1.4 0.74 0.62 1.16 c-0.86 0.5 -1.8 0.72 -2.72 0.7 c-2.44 -0.04 -4.6 -1.84 -4.6 -4.8 c0 -4.12 4.08 -5.94 7.32 -4.12 c0.78 0.4 0.14 1.58 -0.62 1.14 c-2.32 -1.28 -5.38 -0.14 -5.38 2.98 c0 2.2 1.54 3.4 3.26 3.46 c0.7 0.02 1.44 -0.14 2.12 -0.52 l0 0 z M54.28 10.54 c0.1 0.36 -0.08 0.74 -0.44 0.84 c-0.36 0.12 -0.76 -0.08 -0.86 -0.44 c-0.42 -1.28 -1.22 -2.38 -2.32 -3.18 c-1.04 -0.74 -2.34 -1.2 -3.76 -1.2 c-8.34 0 -8.34 12.52 0 12.52 c1.42 0 2.72 -0.44 3.76 -1.2 c1.1 -0.78 1.9 -1.88 2.32 -3.18 c0.1 -0.36 0.5 -0.54 0.86 -0.44 s0.54 0.5 0.44 0.86 c-0.5 1.56 -1.5 2.92 -2.8 3.86 c-1.3 0.92 -2.86 1.48 -4.58 1.48 c-10.14 0 -10.14 -15.26 0 -15.26 c1.72 0 3.28 0.54 4.58 1.46 c1.3 0.96 2.3 2.3 2.8 3.88 l0 0 z M42.78 15.24 c-0.2 -0.34 -0.08 -0.72 0.24 -0.92 c0.34 -0.18 0.74 -0.08 0.92 0.26 c0.32 0.52 0.76 0.98 1.28 1.26 c0.48 0.3 1.06 0.48 1.68 0.48 c0.96 0 1.82 -0.38 2.42 -1.02 c0.64 -0.62 1.02 -1.5 1.02 -2.48 c0 -0.96 -0.38 -1.84 -1.02 -2.46 c-0.6 -0.62 -1.46 -1.02 -2.42 -1.02 c-0.62 0 -1.18 0.16 -1.68 0.46 c-0.52 0.3 -0.96 0.74 -1.28 1.26 c-0.18 0.34 -0.58 0.46 -0.92 0.28 c-0.32 -0.18 -0.44 -0.6 -0.24 -0.94 c0.42 -0.74 1.02 -1.36 1.74 -1.78 s1.54 -0.64 2.38 -0.64 c1.34 0 2.54 0.54 3.42 1.42 c0.84 0.88 1.38 2.08 1.38 3.42 s-0.54 2.54 -1.38 3.42 c-0.88 0.9 -2.08 1.44 -3.42 1.44 c-0.84 0 -1.66 -0.24 -2.38 -0.64 c-0.72 -0.44 -1.32 -1.06 -1.74 -1.8 l0 0 z M62.72 12.18 c-0.18 0 -0.44 0.02 -0.66 0 c-1.04 -0.06 -1.08 -1.32 0 -1.32 c0.62 0 1.36 0.1 1.36 -0.68 c0 -0.4 -0.32 -0.68 -0.7 -0.68 l-2.38 0 c-0.88 0 -0.88 -1.34 0 -1.34 l2.38 0 c1.22 0 2.02 1.02 2.02 2.04 c0 1.12 -0.92 1.98 -2.02 1.98 l0 0 z M63.96 19.14 c0.5 0.72 -0.58 1.5 -1.1 0.78 l-1.84 -2.66 l0 2.28 c0 0.88 -1.34 0.88 -1.34 0 l0 -4.36 c0 -0.72 0.84 -0.92 1.22 -0.42 l3.06 4.38 l0 0 z M58.339999999999996 19.54 c0 0.88 -1.34 0.88 -1.34 0 l0 -13.38 c0 -0.36 0.32 -0.66 0.68 -0.66 l5.26 0 c4.1 0 6.16 5.02 3.28 7.98 c-0.58 0.58 -1.3 1.02 -2.1 1.22 l3.1 4.44 c0.5 0.72 -0.6 1.5 -1.08 0.78 l-3.7 -5.3 c-0.4 -0.52 0 -1.1 0.5 -1.1 c2.94 0 4.38 -3.64 2.32 -5.72 c-0.6 -0.6 -1.42 -0.96 -2.32 -0.96 l-4.6 0 l0 12.7 l0 0 z M76.78 6.42 c-0.16 -0.36 0.02 -0.72 0.34 -0.88 c0.36 -0.12 0.74 0.04 0.88 0.38 l2.08 5.06 l2.06 -5.06 c0.12 -0.34 0.52 -0.5 0.86 -0.38 c0.34 0.16 0.5 0.52 0.38 0.88 l-2.7 6.58 c-0.22 0.54 -1 0.54 -1.24 0 l-2.66 -6.58 l0 0 z M85.16 5.92 c0.14 -0.34 0.54 -0.5 0.86 -0.38 c0.34 0.16 0.5 0.52 0.36 0.88 l-5.7 13.98 c-0.24 0.56 -1 0.56 -1.24 0 l-5.7 -13.98 c-0.12 -0.36 0.02 -0.72 0.38 -0.88 c0.34 -0.12 0.72 0.04 0.86 0.38 l5.1 12.48 l5.08 -12.48 l0 0 z M92.2 19.54 c0 0.36 -0.3 0.66 -0.66 0.66 c-0.38 0 -0.68 -0.3 -0.68 -0.66 l0 -13.38 c0 -0.36 0.3 -0.66 0.68 -0.66 c0.36 0 0.66 0.3 0.66 0.66 l0 13.38 l0 0 z M89.52 19.54 c0 0.36 -0.3 0.66 -0.66 0.66 c-0.38 0 -0.68 -0.3 -0.68 -0.66 l0 -13.38 c0 -0.36 0.3 -0.66 0.68 -0.66 c0.36 0 0.66 0.3 0.66 0.66 l0 13.38 l0 0 z M101.11999999999999 17.54 c-0.48 0 -1.42 0.14 -1.42 -0.68 c0 -1.3 2.12 -0.02 2.12 -1.34 c0 -0.4 -0.28 -0.68 -0.7 -0.68 l-2.34 0 c-0.88 0 -0.88 -1.32 0 -1.32 l2.34 0 c1.86 0 2.72 2.18 1.44 3.44 c-0.36 0.36 -0.86 0.58 -1.44 0.58 l0 0 z M98.77999999999999 9.48 c-0.88 0 -0.88 -1.34 0 -1.34 l2.34 0 c1.86 0 2.72 2.22 1.44 3.46 c-0.68 0.66 -1.36 0.58 -2.18 0.58 c-0.88 0 -0.88 -1.34 0 -1.34 c0.54 0 1.44 0.14 1.44 -0.68 c0 -0.38 -0.28 -0.68 -0.7 -0.68 l-2.34 0 l0 0 z M96.75999999999999 19.56 c0 0.88 -1.34 0.88 -1.34 0 l0 -13.44 c0 -0.36 0.3 -0.68 0.66 -0.68 l5.28 0 c2.74 0 4.64 2.16 4.64 4.68 c0 0.94 -0.24 1.88 -0.82 2.72 c2.12 3.08 -0.06 7.4 -3.8 7.4 l-2.6 0 c-0.88 0 -0.88 -1.36 0 -1.36 l2.6 0 c3.06 0 4.22 -3.74 2.46 -5.54 c-0.78 -0.84 0.82 -1.08 0.82 -3.18 c0 -1.84 -1.46 -3.36 -3.3 -3.36 l-4.6 0 l0 12.76 l0 0 z M116.13999999999999 8.18 c0.38 0 0.68 0.28 0.68 0.66 c0 0.36 -0.3 0.66 -0.68 0.66 l-3.58 0 l0 1.34 l2.34 0 c0.38 0 0.68 0.3 0.68 0.68 c0 0.36 -0.3 0.66 -0.68 0.66 l-3 0 c-0.38 0 -0.68 -0.3 -0.68 -0.66 l0 -2.68 c0 -0.38 0.3 -0.66 0.68 -0.66 l4.24 0 l0 0 z M114.89999999999999 13.52 c0.38 0 0.68 0.3 0.68 0.66 c0 0.38 -0.3 0.68 -0.68 0.68 l-2.34 0 l0 1.32 l3.58 0 c0.38 0 0.68 0.3 0.68 0.68 c0 0.36 -0.3 0.66 -0.68 0.66 l-4.24 0 c-0.38 0 -0.68 -0.3 -0.68 -0.66 l0 -2.68 c0 -0.36 0.3 -0.66 0.68 -0.66 l3 0 l0 0 z M116.13999999999999 18.86 c0.38 0 0.68 0.3 0.68 0.68 c0 0.36 -0.3 0.66 -0.68 0.66 l-6.92 0 c-0.36 0 -0.66 -0.3 -0.66 -0.66 l0 -13.38 c0 -0.36 0.3 -0.66 0.66 -0.66 l6.92 0 c0.38 0 0.68 0.3 0.68 0.66 c0 0.38 -0.3 0.68 -0.68 0.68 l-6.24 0 l0 12.02 l6.24 0 l0 0 z" fill="#fff"/>
</g>
<defs>
<filter id="filter0_d"  filterUnits="userSpaceOnUse" color-interpolation-filters="sRGB">
<feFlood flood-opacity="0" result="BackgroundImageFix"/>
<feColorMatrix in="SourceAlpha" type="matrix" values="0 0 0 0 0 0 0 0 0 0 0 0 0 0 0 0 0 0 1 0"/>
<feOffset dy="4"/>
<feGaussianBlur stdDeviation="2"/>
<feColorMatrix type="matrix" values="0 0 0 0 0 0 0 0 0 0 0 0 0 0 0 0 0 0 0.25 0"/>
<feBlend mode="normal" in2="BackgroundImageFix" result="effect1_dropShadow"/>
<feBlend mode="normal" in="SourceGraphic" in2="effect1_dropShadow" result="shape"/>
</filter>
</defs>
</svg>
